<?xml version="1.0" encoding="utf-8"?>
<!-- Generator: Adobe Illustrator 16.0.0, SVG Export Plug-In . SVG Version: 6.00 Build 0)  -->
<!DOCTYPE svg PUBLIC "-//W3C//DTD SVG 1.1//EN" "http://www.w3.org/Graphics/SVG/1.1/DTD/svg11.dtd">
<svg version="1.1" id="Calque_1" focusable="false" xmlns="http://www.w3.org/2000/svg" xmlns:xlink="http://www.w3.org/1999/xlink"
	 x="0px" y="0px" width="226.77px" height="566.93px" viewBox="0 0 226.77 566.93" enable-background="new 0 0 226.77 566.93"
	 xml:space="preserve">
<path fill="#FFFFFF" d="M156.367,283.465l64.469-64.468c7.912-7.911,7.912-20.738,0-28.656l-14.328-14.328
	c-7.91-7.911-20.737-7.911-28.654,0l-64.469,64.468l-64.468-64.468c-7.911-7.911-20.738-7.911-28.655,0L5.934,190.341
	c-7.912,7.911-7.912,20.738,0,28.656l64.468,64.468L5.934,347.934c-7.912,7.911-7.912,20.738,0,28.655l14.328,14.327
	c7.911,7.912,20.744,7.912,28.655,0l64.468-64.468l64.469,64.468c7.91,7.912,20.744,7.912,28.654,0l14.328-14.327
	c7.912-7.911,7.912-20.737,0-28.655L156.367,283.465z"/>
</svg>
